<svg width="18" height="18" viewBox="0 0 18 18" fill="none" xmlns="http://www.w3.org/2000/svg">
<g clip-path="url(#clip0_362_28)">
<path d="M17.6888 3.3071C17.5315 3.01713 17.3183 2.76116 17.0617 2.55392C16.805 2.34668 16.5099 2.19228 16.1933 2.0996L9.58575 0.100854C8.94447 -0.0860566 8.25526 -0.0111997 7.66906 0.309029C7.08286 0.629258 6.64747 1.16876 6.45825 1.80935L6.1005 2.9996H2.625C1.92881 2.9996 1.26113 3.27617 0.768845 3.76845C0.276562 4.26073 0 4.92841 0 5.6246L0 17.9996H12V16.2499L14.4255 17.1499L17.898 5.22485C17.9917 4.90724 18.0214 4.5742 17.9855 4.24501C17.9496 3.91583 17.8487 3.59704 17.6888 3.3071V3.3071ZM9.75 15.7496H2.25V5.6246C2.25 5.52515 2.28951 5.42977 2.35984 5.35944C2.43016 5.28911 2.52554 5.2496 2.625 5.2496H9.375C9.47446 5.2496 9.56984 5.28911 9.64017 5.35944C9.71049 5.42977 9.75 5.52515 9.75 5.6246V15.7496ZM15.738 4.5986L12.942 14.1986L12 13.8499V5.6246C12 4.92841 11.7234 4.26073 11.2312 3.76845C10.7389 3.27617 10.0712 2.9996 9.375 2.9996H8.45025L8.616 2.4476C8.62597 2.41293 8.6427 2.38056 8.66523 2.35238C8.68775 2.32419 8.71563 2.30073 8.74725 2.28335C8.77692 2.2662 8.8097 2.25512 8.84369 2.25074C8.87768 2.24636 8.9122 2.24878 8.94525 2.25785L15.552 4.25735C15.5868 4.26734 15.6192 4.28416 15.6474 4.30682C15.6756 4.32948 15.699 4.35754 15.7163 4.38935C15.734 4.4209 15.7451 4.45574 15.7488 4.49173C15.7525 4.52772 15.7489 4.56409 15.738 4.5986V4.5986ZM9 9.7496C9 11.4994 6 13.4996 6 13.4996C6 13.4996 3 11.4994 3 9.7496C3 9.35178 3.15804 8.97025 3.43934 8.68894C3.72064 8.40764 4.10218 8.2496 4.5 8.2496C4.89783 8.2496 5.27936 8.40764 5.56066 8.68894C5.84197 8.97025 6 9.35178 6 9.7496C6 9.35178 6.15804 8.97025 6.43934 8.68894C6.72065 8.40764 7.10218 8.2496 7.5 8.2496C7.89783 8.2496 8.27936 8.40764 8.56066 8.68894C8.84197 8.97025 9 9.35178 9 9.7496Z" fill="#717579"/>
</g>
<defs>
<clipPath id="clip0_362_28">
<rect width="18" height="18" fill="white"/>
</clipPath>
</defs>
</svg>
