<svg width="18" height="18" viewBox="0 0 18 18" fill="none" xmlns="http://www.w3.org/2000/svg">
<g clip-path="url(#clip0_205_25)">
<path d="M8.025 1.96902C7.81411 1.52063 7.47998 1.14151 7.06163 0.87596C6.64329 0.610411 6.15801 0.469398 5.6625 0.469398C5.16699 0.469398 4.68171 0.610411 4.26337 0.87596C3.84502 1.14151 3.51089 1.52063 3.3 1.96902H0V4.21902H3.29625C3.50714 4.66741 3.84127 5.04653 4.25962 5.31208C4.67796 5.57763 5.16324 5.71864 5.65875 5.71864C6.15426 5.71864 6.63954 5.57763 7.05788 5.31208C7.47623 5.04653 7.81036 4.66741 8.02125 4.21902H18V1.96902H8.025Z" fill="#717579"/>
<path d="M12.3412 6.37453C11.8458 6.37541 11.3607 6.51682 10.9424 6.78233C10.5241 7.04784 10.1897 7.42657 9.978 7.87453H0V10.1245H9.975C10.1859 10.5729 10.52 10.952 10.9384 11.2176C11.3567 11.4831 11.842 11.6242 12.3375 11.6242C12.833 11.6242 13.3183 11.4831 13.7366 11.2176C14.155 10.952 14.4891 10.5729 14.7 10.1245H18V7.87453H14.7037C14.4921 7.42668 14.1578 7.04804 13.7396 6.78253C13.3215 6.51703 12.8366 6.37555 12.3412 6.37453V6.37453Z" fill="#717579"/>
<path d="M5.65875 12.2808C5.16342 12.2818 4.67853 12.4233 4.26036 12.6888C3.84219 12.9543 3.50789 13.3329 3.29625 13.7808H0V16.0308H3.29625C3.50714 16.4792 3.84127 16.8583 4.25962 17.1238C4.67796 17.3894 5.16324 17.5304 5.65875 17.5304C6.15426 17.5304 6.63954 17.3894 7.05788 17.1238C7.47623 16.8583 7.81036 16.4792 8.02125 16.0308H18V13.7808H8.025C7.81309 13.3324 7.47821 12.9533 7.05931 12.6878C6.64041 12.4222 6.15472 12.2811 5.65875 12.2808V12.2808Z" fill="#717579"/>
</g>
<defs>
<clipPath id="clip0_205_25">
<rect width="18" height="18" fill="white"/>
</clipPath>
</defs>
</svg>
