<svg width="18" height="20" viewBox="0 0 18 20" fill="none" xmlns="http://www.w3.org/2000/svg">
<g clip-path="url(#clip0_89_67)">
<path d="M17.2125 7.99983C17.0718 7.8436 16.8811 7.75584 16.6822 7.75584C16.4833 7.75584 16.2926 7.8436 16.152 7.99983L7.98296 17.1157C7.63474 17.5026 7.22134 17.8096 6.76635 18.019C6.31137 18.2285 5.82371 18.3363 5.33122 18.3363C4.3366 18.3364 3.38269 17.8975 2.67933 17.1161C1.97598 16.3347 1.5808 15.2748 1.58073 14.1697C1.58066 13.0646 1.9757 12.0047 2.67896 11.2232L10.5907 2.3965C11.0138 1.93391 11.5842 1.6758 12.1778 1.67841C12.7713 1.68102 13.3399 1.94412 13.7597 2.41042C14.1794 2.87671 14.4164 3.50841 14.4189 4.16792C14.4213 4.82743 14.1892 5.46131 13.773 5.9315L5.86121 14.7582C5.71852 14.91 5.52855 14.9948 5.33096 14.9948C5.13336 14.9948 4.94339 14.91 4.80071 14.7582C4.6601 14.6019 4.58112 14.39 4.58112 14.169C4.58112 13.948 4.6601 13.7361 4.80071 13.5798L11.8447 5.71733C11.9813 5.56016 12.0569 5.34966 12.0552 5.13116C12.0535 4.91266 11.9746 4.70365 11.8356 4.54915C11.6965 4.39464 11.5084 4.307 11.3118 4.3051C11.1151 4.3032 10.9257 4.3872 10.7842 4.539L3.74021 12.4015C3.53123 12.6336 3.36547 12.9093 3.25237 13.2126C3.13927 13.5159 3.08106 13.8411 3.08106 14.1694C3.08106 14.4978 3.13927 14.8229 3.25237 15.1262C3.36547 15.4296 3.53123 15.7052 3.74021 15.9373C4.16892 16.3919 4.73874 16.6455 5.33133 16.6455C5.92392 16.6455 6.49374 16.3919 6.92246 15.9373L14.8335 7.10983C15.522 6.32508 15.9045 5.27054 15.8982 4.17464C15.8918 3.07874 15.4972 2.02973 14.7997 1.25485C14.1022 0.479968 13.158 0.0416165 12.1717 0.0347499C11.1854 0.0278832 10.2364 0.453055 9.5302 1.21816L1.61846 10.0448C0.63384 11.1388 0.0806885 12.6227 0.0806885 14.1698C0.0806885 15.717 0.63384 17.2008 1.61846 18.2948C2.60307 19.3888 3.9385 20.0035 5.33096 20.0035C6.72341 20.0035 8.05884 19.3888 9.04346 18.2948L17.2125 9.1815C17.2825 9.10406 17.3381 9.01199 17.3761 8.9106C17.414 8.8092 17.4335 8.70047 17.4335 8.59066C17.4335 8.48085 17.414 8.37212 17.3761 8.27073C17.3381 8.16933 17.2825 8.07727 17.2125 7.99983Z" fill="#717579"/>
</g>
<defs>
<clipPath id="clip0_89_67">
<rect width="18" height="20" fill="white"/>
</clipPath>
</defs>
</svg>
