<svg width="18" height="18" viewBox="0 0 18 18" fill="none" xmlns="http://www.w3.org/2000/svg">
<path d="M16.875 7.87501H1.125C0.503684 7.87501 0 8.37869 0 9.00001C0 9.62132 0.503684 10.125 1.125 10.125H16.875C17.4963 10.125 18 9.62132 18 9.00001C18 8.37869 17.4963 7.87501 16.875 7.87501Z" fill="#717579"/>
<path d="M1.125 4.87502H16.875C17.4963 4.87502 18 4.37134 18 3.75002C18 3.1287 17.4963 2.62502 16.875 2.62502H1.125C0.503684 2.62502 0 3.1287 0 3.75002C0 4.37134 0.503684 4.87502 1.125 4.87502Z" fill="#717579"/>
<path d="M16.875 13.125H1.125C0.503684 13.125 0 13.6287 0 14.25C0 14.8713 0.503684 15.375 1.125 15.375H16.875C17.4963 15.375 18 14.8713 18 14.25C18 13.6287 17.4963 13.125 16.875 13.125Z" fill="#717579"/>
</svg>
