<svg width="46" height="46" viewBox="0 0 46 46" fill="none" xmlns="http://www.w3.org/2000/svg">
<circle cx="23" cy="23" r="23" fill="#2086EA"/>
<g clip-path="url(#clip0_84_255)">
<path d="M16.5211 31.8996H21.8431L25.3621 35.4146C25.5512 35.6048 25.7761 35.7557 26.0237 35.8586C26.2714 35.9616 26.5369 36.0146 26.8051 36.0146C26.9816 36.0143 27.1573 35.9918 27.3281 35.9476C27.6734 35.8605 27.9895 35.6839 28.2448 35.4356C28.5001 35.1874 28.6854 34.8763 28.7821 34.5336L34.9891 13.4246L16.5211 31.8996Z" fill="white"/>
<path d="M15.0869 30.5001L33.5719 12.0121L12.4779 18.2331C12.1344 18.3308 11.8225 18.5166 11.573 18.7721C11.3235 19.0275 11.1451 19.3438 11.0556 19.6894C10.966 20.0351 10.9684 20.3982 11.0625 20.7426C11.1566 21.0871 11.3391 21.401 11.5919 21.6531L15.0869 25.1451V30.5001Z" fill="white"/>
</g>
<defs>
<clipPath id="clip0_84_255">
<rect width="24" height="24" fill="white" transform="translate(11 12)"/>
</clipPath>
</defs>
</svg>
