<svg width="30" height="30" viewBox="0 0 30 30" fill="none" xmlns="http://www.w3.org/2000/svg">
<path d="M28.19 16.5125L26 8.64502C25.2936 6.10996 23.7602 3.88368 21.6436 2.31988C19.5269 0.756092 16.9484 -0.0555148 14.3177 0.01401C11.6869 0.0835348 9.15488 1.0302 7.1238 2.70361C5.09271 4.37702 3.67909 6.68118 3.10752 9.25002L1.41502 16.8613C1.19174 17.8662 1.19696 18.9083 1.4303 19.9109C1.66364 20.9135 2.11914 21.8509 2.76319 22.6539C3.40724 23.457 4.22339 24.1051 5.15141 24.5505C6.07943 24.996 7.09564 25.2273 8.12502 25.2275H8.62502C9.02281 26.6032 9.85682 27.8123 11.0014 28.6728C12.146 29.5334 13.5393 29.9987 14.9713 29.9987C16.4033 29.9987 17.7965 29.5334 18.9411 28.6728C20.0857 27.8123 20.9197 26.6032 21.3175 25.2275H21.5588C22.6187 25.2276 23.6643 24.9827 24.6139 24.5118C25.5634 24.041 26.3913 23.3569 27.0327 22.5131C27.6741 21.6693 28.1118 20.6886 28.3115 19.6477C28.5111 18.6068 28.4674 17.5338 28.1838 16.5125H28.19ZM24.0538 20.2425C23.7636 20.6278 23.3875 20.94 22.9555 21.1544C22.5235 21.3688 22.0473 21.4795 21.565 21.4775H8.12502C7.65716 21.4774 7.19528 21.3723 6.77349 21.1698C6.35169 20.9674 5.98073 20.6728 5.68799 20.3078C5.39525 19.9429 5.18819 19.5168 5.0821 19.0611C4.97601 18.6054 4.97359 18.1318 5.07502 17.675L6.76752 10.05C7.15617 8.29511 8.1207 6.72064 9.50758 5.57726C10.8945 4.43387 12.624 3.78728 14.4208 3.74042C16.2176 3.69356 17.9785 4.24912 19.4231 5.31866C20.8676 6.3882 21.9129 7.91026 22.3925 9.64252L24.5775 17.51C24.7094 17.9748 24.7306 18.4639 24.6397 18.9384C24.5488 19.4128 24.3481 19.8595 24.0538 20.2425V20.2425Z" fill="#717579"/>
</svg>
