<svg width="30" height="30" viewBox="0 0 30 30" fill="none" xmlns="http://www.w3.org/2000/svg">
<g clip-path="url(#clip0_413_42)">
<path d="M18.1251 30C17.7854 30.0005 17.4521 29.908 17.1613 29.7325L10.9113 25.9825C10.6336 25.8161 10.4036 25.5805 10.2439 25.2988C10.0842 25.0171 10.0002 24.6988 10.0001 24.375V17.9188L2.54257 8.79375C1.70288 7.83051 1.24334 6.59409 1.25007 5.31625C1.25173 3.9068 1.81236 2.55555 2.80899 1.55892C3.80563 0.562289 5.15687 0.00165409 6.56632 0L23.4338 0C24.4586 0.000373052 25.4614 0.29685 26.3217 0.853759C27.1819 1.41067 27.8629 2.20428 28.2827 3.13912C28.7025 4.07395 28.8433 5.11018 28.688 6.12312C28.5327 7.13607 28.0881 8.08257 27.4076 8.84875L20.0001 17.9775V28.125C20.0001 28.6223 19.8025 29.0992 19.4509 29.4508C19.0993 29.8025 18.6224 30 18.1251 30V30ZM13.7501 23.3125L16.2501 24.8125V17.3125C16.2497 16.8819 16.3976 16.4644 16.6688 16.13L24.5501 6.42125C24.8338 6.12268 24.9945 5.72809 25.0001 5.31625C24.9994 4.90106 24.8342 4.50306 24.5406 4.20947C24.247 3.91589 23.849 3.75066 23.4338 3.75H6.56632C6.26443 3.7503 5.96905 3.83777 5.71567 4.0019C5.46229 4.16603 5.2617 4.39984 5.138 4.67522C5.0143 4.95061 4.97275 5.25586 5.01836 5.55429C5.06396 5.85271 5.19477 6.13163 5.39507 6.3575L13.3276 16.0638C13.6009 16.3986 13.7502 16.8177 13.7501 17.25V23.3125Z" fill="#717579"/>
</g>
<defs>
<clipPath id="clip0_413_42">
<rect width="30" height="30" fill="white"/>
</clipPath>
</defs>
</svg>
