<svg width="30" height="30" viewBox="0 0 30 30" fill="none" xmlns="http://www.w3.org/2000/svg">
<g clip-path="url(#clip0_395_113)">
<path d="M23.125 1.24976H6.875C5.05225 1.25174 3.30472 1.97671 2.01583 3.26559C0.726951 4.55447 0.00198521 6.302 0 8.12476L0 21.8748C0.00198521 23.6975 0.726951 25.445 2.01583 26.7339C3.30472 28.0228 5.05225 28.7478 6.875 28.7498H23.125C24.9478 28.7478 26.6953 28.0228 27.9842 26.7339C29.273 25.445 29.998 23.6975 30 21.8748V8.12476C29.998 6.302 29.273 4.55447 27.9842 3.26559C26.6953 1.97671 24.9478 1.25174 23.125 1.24976ZM23.125 4.99976C23.8831 5.00228 24.6139 5.28294 25.1787 5.78851L17.0537 13.9135C16.5019 14.4406 15.7681 14.7347 15.005 14.7347C14.2419 14.7347 13.5081 14.4406 12.9562 13.9135L4.83125 5.78851C5.39356 5.28522 6.12037 5.00472 6.875 4.99976H23.125ZM23.125 24.9998H6.875C6.0462 24.9998 5.25134 24.6705 4.66529 24.0845C4.07924 23.4984 3.75 22.7036 3.75 21.8748V10.021L10.2987 16.5698C10.9159 17.1872 11.6488 17.677 12.4553 18.0112C13.2618 18.3454 14.1263 18.5174 14.9994 18.5174C15.8724 18.5174 16.7369 18.3454 17.5434 18.0112C18.35 17.677 19.0828 17.1872 19.7 16.5698L26.25 10.021V21.8748C26.25 22.7036 25.9208 23.4984 25.3347 24.0845C24.7487 24.6705 23.9538 24.9998 23.125 24.9998Z" fill="#717579"/>
</g>
<defs>
<clipPath id="clip0_395_113">
<rect width="30" height="30" fill="white"/>
</clipPath>
</defs>
</svg>
