<svg width="30" height="30" viewBox="0 0 30 30" fill="none" xmlns="http://www.w3.org/2000/svg">
<g clip-path="url(#clip0_395_105)">
<path d="M14.3155 17.5235C8.98838 18.005 4.92982 22.5064 5.00054 27.8547V28.126C5.00054 29.1615 5.84002 30.001 6.87554 30.001C7.91107 30.001 8.75054 29.1615 8.75054 28.126V27.7797C8.69418 24.4958 11.1176 21.6955 14.3755 21.2797C17.8146 20.9387 20.879 23.4502 21.22 26.8892C21.2402 27.0925 21.2504 27.2967 21.2505 27.501V28.126C21.2505 29.1615 22.09 30.001 23.1255 30.001C24.1611 30.001 25.0005 29.1615 25.0005 28.126V27.5009C24.9944 21.9719 20.5073 17.4946 14.9782 17.5007C14.7572 17.501 14.5361 17.5086 14.3155 17.5235Z" fill="#717579"/>
<path d="M15.0006 15C19.1427 15 22.5006 11.6421 22.5006 7.5C22.5006 3.35789 19.1427 0 15.0006 0C10.8585 0 7.50061 3.35789 7.50061 7.5C7.50471 11.6404 10.8602 14.9958 15.0006 15ZM15.0006 3.75C17.0717 3.75 18.7506 5.42895 18.7506 7.5C18.7506 9.57105 17.0717 11.25 15.0006 11.25C12.9296 11.25 11.2506 9.57105 11.2506 7.5C11.2506 5.42895 12.9296 3.75 15.0006 3.75Z" fill="#717579"/>
</g>
<defs>
<clipPath id="clip0_395_105">
<rect width="30" height="30" fill="white"/>
</clipPath>
</defs>
</svg>
