<?xml version="1.0" encoding="iso-8859-1"?><!-- Generator: Adobe Illustrator 22.1.0, SVG Export Plug-In . SVG Version: 6.00 Build 0)  --><svg xmlns="http://www.w3.org/2000/svg" xmlns:xlink="http://www.w3.org/1999/xlink" viewBox="0 0 100 100" width="100px" height="100px"><g><g><g><circle style="fill:#EE3E54;" cx="13" cy="29" r="2"/></g><g><circle style="fill:#F1BC19;" cx="77" cy="13" r="1"/></g><g><circle style="fill:#FCE0A2;" cx="50" cy="50" r="37"/></g><g><circle style="fill:#F1BC19;" cx="83" cy="15" r="4"/></g><g><circle style="fill:#EE3E54;" cx="87" cy="24" r="2"/></g><g><circle style="fill:#FBCD59;" cx="81" cy="76" r="2"/></g><g><circle style="fill:#FBCD59;" cx="15" cy="63" r="4"/></g><g><circle style="fill:#EE3E54;" cx="25" cy="87" r="2"/></g><g><circle style="fill:#FFFFFF;" cx="18.5" cy="53.5" r="2.5"/></g><g><circle style="fill:#F1BC19;" cx="21" cy="67" r="1"/></g><g><circle style="fill:#FFFFFF;" cx="80" cy="34" r="1"/></g></g></g><g><g><path style="fill:#3D72B1;" d="M35,72.3c-4.025,0-7.3-3.274-7.3-7.3V35c0-4.025,3.274-7.3,7.3-7.3h30c4.025,0,7.3,3.274,7.3,7.3    v30c0,4.025-3.274,7.3-7.3,7.3H35z"/></g><g><path style="fill:#472B29;" d="M65,28.4c3.639,0,6.6,2.961,6.6,6.6v30c0,3.639-2.961,6.6-6.6,6.6H35c-3.639,0-6.6-2.961-6.6-6.6    V35c0-3.639,2.961-6.6,6.6-6.6H65 M65,27H35c-4.4,0-8,3.6-8,8v30c0,4.4,3.6,8,8,8h30c4.4,0,8-3.6,8-8V35C73,30.6,69.4,27,65,27    L65,27z"/></g></g><g><path style="fill:#3D72B1;" d="M68.5,47.875v1.75V64c0,2.475-2.025,4.5-4.5,4.5H36c-2.475,0-4.5-2.025-4.5-4.5V36   c0-2.475,2.025-4.5,4.5-4.5h25.375H64c2.475,0,4.5,2.025,4.5,4.5v3.375v2v1V43.5v2.875V47.875"/></g><g><path style="fill:#472B29;" d="M68.5,47.375c-0.276,0-0.5-0.224-0.5-0.5V43c0-0.276,0.224-0.5,0.5-0.5S69,42.724,69,43v3.875   C69,47.151,68.776,47.375,68.5,47.375z"/></g><g><path style="fill:#472B29;" d="M68.5,40.5c-0.276,0-0.5-0.224-0.5-0.5v-2c0-0.276,0.224-0.5,0.5-0.5S69,37.724,69,38v2   C69,40.276,68.776,40.5,68.5,40.5z"/></g><g><path style="fill:#472B29;" d="M64,69H36c-2.757,0-5-2.243-5-5V36c0-2.757,2.243-5,5-5h25.375c0.276,0,0.5,0.224,0.5,0.5   s-0.224,0.5-0.5,0.5H36c-2.206,0-4,1.794-4,4v28c0,2.206,1.794,4,4,4h28c2.206,0,4-1.794,4-4V49.625c0-0.276,0.224-0.5,0.5-0.5   s0.5,0.224,0.5,0.5V64C69,66.757,66.757,69,64,69z"/></g><g><path style="fill:#FFFEF4;" d="M60.863,53.81c2.317,2.413,2.801,3.59,2.878,3.733c0.961,1.792-1.063,1.927-1.063,1.927   l-3.871,0.064c0,0-0.834,0.186-1.929-0.664c-1.452-1.106-2.814-4.004-3.884-3.633c-1.076,0.385-1.044,2.998-1.044,2.998   s0.006,0.457-0.236,0.757c-0.267,0.314-0.789,0.286-0.789,0.286h-1.738c0,0-3.826,0.357-7.194-3.576   c-3.674-4.29-6.914-12.748-6.914-12.748s-0.185-0.535,0.013-0.807c0.229-0.3,0.853-0.314,0.853-0.314l4.145-0.021   c0,0,0.388,0.079,0.668,0.307c0.229,0.186,0.363,0.542,0.363,0.542s0.668,1.906,1.553,3.619c1.732,3.355,2.54,4.09,3.126,3.733   c0.859-0.528,0.598-4.739,0.598-4.739s0.019-1.535-0.433-2.22c-0.344-0.521-0.993-0.678-1.286-0.721   c-0.236-0.036,0.153-0.642,0.649-0.914c0.745-0.407,2.063-0.435,3.616-0.414c1.21,0.014,1.56,0.1,2.031,0.228   c1.432,0.385,0.949,1.877,0.949,5.46c0,1.149-0.185,2.762,0.554,3.298c0.318,0.228,1.095,0.036,3.031-3.662   c0.923-1.756,1.611-3.812,1.611-3.812s0.153-0.371,0.388-0.528c0.242-0.157,0.567-0.107,0.567-0.107l4.361-0.036   c0,0,1.305-0.171,1.522,0.493c0.223,0.692-0.49,2.32-2.273,4.982C58.756,51.69,58.431,51.283,60.863,53.81z"/></g></svg>