<svg width="800" height="600" xmlns="http://www.w3.org/2000/svg">

 <g>
  <title>Layer 1</title>
  <path stroke="#000" id="svg_5" d="m234.11052,146.43633c-1.7144,0 -2.5956,-2.03876 -2.5956,-4.4836c0,-2.03829 0.44053,-4.01723 1.7144,-4.01723c0.8812,0 2.20773,1.97894 2.64827,4.01723c0.8812,2.96771 0,4.4836 -1.76707,4.4836zm293.05866,116.32908c3.92227,0 4.80333,0.52287 2.5956,4.01676c-1.27387,2.44484 -3.92213,4.48312 -5.196,4.48312c-1.3264,0 -2.64827,-2.03829 -2.64827,-4.48312c0,-2.50481 1.7672,-4.01676 5.24867,-4.01676zm-273.83586,-142.29667c-3.92213,-0.98924 -4.3628,-5.99854 0,-7.51096c2.2076,-0.46574 3.4816,0.98908 3.4816,4.01723c0,2.5045 -1.274,3.95994 -3.4816,3.49373zm-48.89027,158.24801c5.24867,-1.4556 5.24867,-2.50181 3.4816,-5.93873c-1.32187,-2.50181 -1.7624,-5.52965 -0.8812,-6.51904c0.44053,-1.5151 2.64827,0 3.92213,2.96802c1.76707,4.01723 3.0888,4.54325 6.5704,2.03829c2.15987,-1.51226 3.92213,-2.50418 3.92213,-0.98908c0,0.98908 1.32653,0 3.04093,-2.03829c2.6484,-2.96802 3.08893,-9.48975 0.44067,-12.98379c-2.15507,-2.96802 -13.09293,-1.97863 -16.13387,1.51226c-1.7624,2.50497 -3.08893,1.98179 -4.80333,-2.50134c-2.64827,-7.4543 -2.64827,-8.50083 3.48147,-8.96656c5.24867,0 5.24867,0 0.8812,-3.02784c-2.20293,-1.4556 -4.36267,-4.48312 -4.36267,-6.46207c0,-5.00899 6.08187,-7.97701 8.73013,-4.48297c0.8812,1.45529 2.59573,2.96802 4.3628,2.96802c3.4816,0 20.10387,-16.94137 20.10387,-20.43541c0,-1.51494 1.7192,-2.50402 3.4816,-1.51494c2.15973,0.52587 6.082,-0.98908 10.0568,-3.49405c5.63653,-4.01691 5.63653,-4.48312 2.5956,-11.00217c-2.15507,-4.48312 -4.80333,-5.99854 -10.9332,-5.99854c-6.96307,0 -8.73013,0.98955 -10.8852,6.98809c-0.886,4.01676 -3.53413,6.98494 -5.24867,6.98494c-3.04093,0 -3.92213,-4.48044 -0.8812,-6.98494c1.32173,-0.98955 2.20293,-4.48312 2.20293,-7.97717c0,-5.47283 -0.8812,-6.46207 -6.5704,-5.00631c-5.6892,0.98908 -5.6892,0.52287 -4.3628,-6.98841c0.8812,-4.48297 2.15507,-8.49988 3.04107,-8.96609c0.8812,-0.52287 1.76227,-5.00631 1.76227,-9.48943c0,-8.96704 2.6004,-10.4793 7.40853,-4.01723c2.2028,3.49389 3.52947,4.01723 4.36267,0.98908c0.8812,-1.97863 3.97,-2.44484 8.77813,-1.45576c6.52253,1.97894 6.96307,1.45576 6.08187,-4.48312c-0.44053,-3.49357 -0.88587,-7.5108 -1.3264,-8.49988c0,-1.51273 -2.15507,-3.49405 -4.75547,-5.00678c-5.24867,-2.50402 -6.5704,-8.49988 -1.76707,-8.49988c1.32653,0 2.60027,-0.98955 2.60027,-2.97118c0,-1.51273 2.6484,-2.50181 6.12987,-2.0386c4.80813,0.52587 7.40373,-1.45497 13.97413,-11.9338c4.80813,-7.51128 8.2896,-11.52819 8.73027,-9.48991c0.44053,2.50181 2.64827,3.9571 4.808,3.9571c3.4816,0 3.92227,-1.45529 2.6484,-7.97433c-0.44533,-4.48344 -2.6484,-9.95564 -3.9748,-12.46061c-3.92227,-5.53186 -3.92227,-11.99393 0,-10.01577c3.0888,1.98179 12.70013,-3.49089 12.70013,-6.98478c0,-1.5151 1.27867,-2.5045 3.04093,-2.5045c1.7672,0 2.6004,3.02768 2.6004,6.98794c0,5.00631 0.8812,6.98525 3.08893,5.52949c1.7144,-1.04637 3.04107,-4.01723 3.04107,-5.9957c0,-5.99886 13.974,-16.47784 17.45547,-13.50714c1.32667,0.98987 2.64827,0 3.09387,-3.49357c1.27373,-6.98794 9.16587,-12.46061 12.64733,-8.96656c1.7672,1.45529 3.48173,0.98955 3.92707,-0.52287c0.88107,-1.98163 4.36267,-3.49405 8.2848,-3.96057c3.92213,-0.52287 9.1708,-2.5045 11.37853,-4.54278c8.2848,-6.46207 16.57453,-5.99586 20.056,0.99255c2.20773,5.00599 3.0888,5.00599 3.0888,1.51195c0,-4.48344 1.71933,-5.00631 12.21187,-3.49357c16.6224,1.98163 19.2228,1.98163 25.35267,-0.52334c3.92213,-1.4556 5.24853,-0.98939 5.24853,3.02736c0,2.50497 1.274,4.4836 3.04107,4.4836c1.32173,0 2.5956,-1.45576 2.5956,-2.97086c0,-4.01676 7.01587,-5.9957 13.1456,-4.01676c4.75547,1.98163 5.196,2.50402 3.92213,15.95403c-0.44053,8.03415 0,13.50682 0.83333,13.50682c0.88107,0 1.76707,-3.49405 1.76707,-8.50035c0,-8.44338 4.80333,-11.93459 6.5704,-5.00647c0.44067,2.50197 1.7144,1.51242 2.5956,-2.44468c2.20787,-10.48198 7.01587,-5.00946 5.6892,6.46207c-1.3216,9.48943 -1.3216,9.48943 2.60053,5.99539c2.2076,-1.51242 3.922,-5.4722 3.922,-7.97433c0,-2.50465 1.32667,-5.47536 3.08907,-6.52188c3.48133,-1.97816 7.4084,5.52997 6.12973,11.00485c-0.44053,2.50229 -0.44053,4.48344 0.8332,4.48344c0.886,0 1.7672,-1.45529 1.7672,-2.5045c0,-1.4556 2.15973,-1.97894 4.808,-0.98908c5.68453,1.51242 6.51773,5.52918 1.71453,7.97401c-1.27387,1.04921 -2.6004,3.49405 -2.6004,5.53265c0,3.49405 0.88587,3.49405 5.6892,0c7.84427,-5.9957 11.32573,-5.53265 12.6524,0.98908c0.88107,3.49405 2.60027,5.00915 4.36267,3.49405c1.76707,-0.52318 5.6892,1.5151 8.73027,5.00631c2.64827,2.97071 6.5704,5.47268 8.33747,5.47268c2.6004,0 2.6004,2.50481 1.7144,9.49243c-0.88107,7.51128 -0.88107,8.50035 1.7672,5.47299c3.48147,-4.94981 4.80333,-4.48391 6.082,2.50134c0.44053,3.49405 3.52933,5.99854 7.01093,7.51096c3.92213,0.99255 6.082,3.49389 6.082,6.46475c0,3.02768 1.3216,6.51904 2.64827,8.50067c3.4816,3.49357 2.5956,13.97256 -1.32667,17.46645c-1.3216,1.04653 -3.0408,0.52334 -3.48147,-0.98908c-0.88107,-1.51542 -3.92213,-1.51542 -9.61147,0c-9.1708,3.49089 -10.8852,4.48312 -8.73013,9.02322c1.32653,2.96802 16.5792,1.97894 24.912,-1.5151c2.6004,-1.51258 3.4816,0 3.4816,6.98809c0,5.00599 -0.8812,8.96656 -2.20293,8.96656c-0.886,0 -1.7192,1.51226 -1.7192,4.01676c0,5.99823 2.15987,5.4722 7.84907,-1.51273c3.03613,-4.01676 4.8032,-5.00899 6.96307,-2.50402c2.20293,2.50402 2.64827,2.50402 2.64827,-1.51273c0,-2.44784 -0.886,-4.48312 -2.2076,-4.48312c-0.83333,0 -1.71933,-1.98163 -1.71933,-3.96057c0,-2.50418 1.27867,-4.48312 3.04093,-4.48312c1.32653,0 3.08893,0.98908 3.08893,2.44484c0,1.51573 1.7192,3.49389 3.92693,4.01723c3.03627,1.51542 3.92213,3.49405 3.48147,9.48975c-0.88587,11.47074 0.88133,14.96511 7.40373,12.98648c3.08893,-0.99255 4.8032,0 3.4816,1.97863c-0.39267,0.98908 0,3.49405 0.8812,4.53978c3.53413,2.97102 2.2076,9.95643 -1.71453,9.95643c-4.808,0 -6.12987,2.50402 -3.52933,6.98762c1.76227,2.5045 3.0888,2.96802 4.8032,0.98939c3.9748,-5.00631 4.80813,-0.98939 5.24867,18.98234c0,10.0123 0.8812,17.98979 1.7624,17.98979c2.15973,0 1.32653,11.00485 -1.7624,15.48797c-1.7192,2.50181 -1.7192,4.94649 -0.44053,6.98478c3.0888,4.4836 0,17.46739 -3.92707,17.46739c-3.48133,0 -10.05187,9.48943 -10.05187,13.97287c0,5.47567 -5.63653,0 -6.96307,-5.99586c-1.32173,-5.47252 -1.32173,-5.47252 -2.20773,-1.5151c-0.8332,4.54294 3.92693,18.51581 7.89707,22.47559c2.60027,3.02815 -2.20773,8.03415 -5.68933,5.99586c-1.7672,-0.98908 -2.6004,-3.9571 -2.6004,-6.98494c0,-8.49988 -10.9332,-29.92737 -19.2228,-37.9612c-4.41053,-3.96057 -8.3328,-8.4437 -8.3328,-9.95596c0,-3.02784 -13.9788,-12.46061 -21.82307,-15.48829c-4.3676,-1.5151 -5.68933,-0.98924 -5.68933,3.02768c0,2.96802 -0.8332,3.9571 -2.6004,2.96802c-3.92213,-1.97894 -5.6892,2.50497 -2.2076,6.98809c4.808,5.47252 3.9748,11.99393 -1.27387,9.48943c-3.52947,-1.51242 -3.97013,-0.98955 -2.64827,7.51112c0.44053,4.94933 1.32653,11.47074 1.32653,14.43877c0,3.02784 0.88107,5.00678 1.76227,5.00678c1.2788,0 1.7192,-0.98955 0.83333,-2.50181c-0.44053,-1.51542 0.44547,-2.97086 2.2076,-2.97086c1.32667,0 2.6004,1.98131 2.6004,3.95994c0,2.0386 -1.71907,4.01676 -4.808,3.49436c-2.5956,0 -4.80333,-1.45576 -4.80333,-2.44515c0,-4.54325 -11.7712,-35.45971 -15.25267,-39.9998c-3.92227,-4.94981 -1.32187,-6.46207 -32.31587,17.00055c-4.8032,3.49405 -10.05187,11.00485 -12.70013,16.47784c-2.15987,5.4722 -5.64133,11.00485 -7.40373,11.99393c-1.76707,0.98955 -8.2896,8.96656 -13.97893,17.46692c-24.47147,37.43518 -20.49667,41.91862 -18.78213,118.36768c7.4084,57.92993 7.4084,57.92993 7.4084,57.92993c-17.4604,0 -17.4604,0 -17.4604,0c-14.41467,0 -14.41467,0 -14.41467,0c1.32173,-53.44981 1.32173,-53.44981 1.32173,-53.44981c0.88107,-4.48013 1.32653,-13.50635 1.7672,-18.51313c0.44053,-2.97071 -12.25973,-15.9545 -11.81907,-18.92221c0,-2.5045 13.1408,4.4836 13.1408,1.97863c2.15973,-36.4461 0,-65.44121 -5.68933,-80.87237c-1.32173,-9.48991 -12.2596,-39.99681 -13.974,-39.99681c-0.44067,0 -3.52947,-2.97071 -6.5704,-6.46475c-5.2488,-6.51873 -7.40373,-6.98525 -36.68333,-8.96656c-31.43453,-2.0356 -31.43453,-2.0356 -31.43453,-2.0356c-7.4516,6.98525 -7.4516,6.98525 -7.4516,6.98525c-4.36267,4.54278 -8.73013,7.51096 -10.00413,7.51096c-2.64827,0 -13.58613,10.48151 -18.3416,16.47689c-0.44053,0 -0.88107,-0.52239 -0.88107,-0.98908c-0.44067,0 -0.44067,0 -0.44067,-0.52318c-0.44053,-1.45529 -0.88587,-2.97071 -1.76707,-4.48312c2.64827,-2.5045 4.808,-4.0196 5.6892,-3.49357c1.32173,0.98908 2.6004,0 2.6004,-2.50497c0,-2.50181 -2.6004,-3.49389 -9.56347,-2.50181c-8.3376,1.51273 -10.49733,2.0356 -11.81907,7.97449c-2.15987,3.02768 -2.6004,7.51112 -1.32173,11.00517c-0.44547,4.48312 -0.44547,7.5108 0,7.5108c0.44053,0 0.88107,-0.98908 2.20293,-2.03829c0,0.52334 0.44053,1.04921 0.88587,1.5151c-4.36747,1.51242 -6.5752,5.99586 -6.12987,10.47898c-2.2076,2.03829 -4.36747,3.02768 -7.0156,4.5401c0,0 0,-0.52287 -0.3928,-0.52287c1.7192,-4.48312 2.6004,-9.48991 3.04093,-17.00071c0.886,-8.4437 0.44053,-13.97287 -0.88107,-13.97287c-0.8812,0 -1.76707,2.03829 -1.76707,5.00583c0.4404,2.50497 -0.3928,5.00678 -2.1552,5.47299c-1.32653,0.52287 -2.2076,-0.46621 -2.2076,-2.96802c0,-5.99854 -1.71453,-5.99854 -5.64147,-0.52587c-1.76227,2.03829 -5.24387,4.48344 -8.2848,5.53265c-3.9748,1.45529 -5.24867,0.46574 -7.01573,-5.00678c-1.32173,-4.48312 -2.20293,-9.49243 -1.32173,-11.47106c0.44053,-2.5045 0.44053,-4.5401 -1.27387,-4.5401c-4.80813,0 -1.32653,-7.97749 4.36267,-9.49259zm37.5644,-114.81397c-2.64827,-0.52287 -4.80813,-1.97863 -5.6892,-4.01691c-0.44067,-2.97071 -0.8812,-2.97071 -0.8812,0c0,2.03829 -1.76707,3.49405 -3.4816,4.01691c-3.0888,0 -3.0888,0.52318 0.44067,2.50497c2.15493,0.98908 4.36267,2.50134 4.8032,2.50134c0.39267,0 2.6004,-1.51226 4.80813,-2.50134c3.92213,-2.50497 3.92213,-2.50497 0,-2.50497zm346.31159,80.40616c0.83333,0.98955 1.71453,-0.52587 1.71453,-3.02768c0,-1.98131 -0.8812,-3.96026 -1.71453,-3.96026c-1.3264,0 -2.2076,0.98939 -2.2076,2.44484c0,1.51542 0.8812,3.5537 2.2076,4.5431zm-3.0888,4.48344c-0.44053,-1.51542 -2.6004,-3.49389 -4.36747,-3.49389c-1.27387,0 -2.15507,1.97847 -1.27387,3.49389c0.39267,1.51242 2.15973,2.50197 3.92213,2.50197c1.7192,0 2.15973,-0.98955 1.7192,-2.50197zm-3.92213,22.47291c1.32173,0 3.0888,-0.52287 3.0888,-0.98908c0,-1.04921 -1.76707,-2.03829 -3.0888,-3.02784c-1.7192,-0.98939 -3.04107,-0.46621 -3.04107,0.98955c0,1.5151 1.32187,3.02736 3.04107,3.02736zm3.4816,-47.45063c1.76227,-0.98987 2.64813,-2.50481 2.20293,-3.96057c-1.32187,-3.55055 -8.7256,-3.55055 -8.7256,0c0,3.96057 2.59573,5.47299 6.52267,3.96057zm-23.98293,-37.43865c-2.20773,1.51542 -3.52947,4.48344 -3.08907,5.99854c2.20773,3.95757 4.80827,2.96802 7.01107,-3.49405c2.15987,-5.99854 1.27867,-6.98762 -3.922,-2.5045zm-8.3376,76.91227c11.3784,13.44953 11.81907,13.97287 11.81907,9.48975c0,-2.50181 -0.8812,-4.5401 -2.20773,-4.5401c-1.27373,0 -3.48147,-2.50497 -4.8032,-5.47252c-1.274,-2.97118 -3.92213,-5.99902 -6.082,-5.99902c-3.97,0 -3.97,0.52602 1.27387,6.52188zm-9.16613,-23.52244c2.6436,0 3.92227,-0.98908 2.20307,-1.45545c-1.32173,-0.98939 -3.4816,-0.98939 -4.80333,0c-1.32667,0.46637 0,1.45545 2.60027,1.45545zm-12.65227,-67.88605c1.32173,1.51273 5.24387,3.49136 8.72533,4.4836c6.13,1.51226 6.57053,1.51226 3.08893,-2.5045c-3.97,-4.94981 -14.8552,-6.46207 -11.81427,-1.9791zm-26.63133,-82.85052c-1.32173,1.45529 -1.76227,4.48312 -1.32173,6.4616c0.8812,4.01723 3.4816,0.52334 3.4816,-5.47252c0,-3.02784 -0.44067,-3.49405 -2.15987,-0.98908zm13.09293,107.82872c3.4816,2.5015 4.80813,2.5015 6.57533,-0.99223c3.48147,-5.47283 1.27373,-7.97433 -5.2488,-4.48297c-5.24867,2.44752 -5.24867,2.44752 -1.32653,5.4752zm-8.72533,-24.9782c6.5704,-5.47204 6.5704,-5.47204 1.32173,-5.47204c-3.52947,0 -6.12987,1.97816 -7.4516,5.47204c-0.83333,3.49136 -1.7192,5.47299 -1.27867,5.47299c0,0 3.4816,-2.97102 7.40853,-5.47299zm-9.61147,80.9295c3.03613,5.47299 8.28493,5.47299 6.5704,-0.52318c-0.44053,-1.98131 -0.88587,-4.48312 -0.88587,-5.00915c0,-0.46621 -1.7624,-0.46621 -3.92213,0.52602c-3.52947,0.98939 -3.52947,2.50181 -1.7624,5.00631zm-13.53827,-20.4946c3.48147,5.47283 5.24867,5.9957 9.1708,1.97894c2.6004,-2.50181 2.6004,-2.50181 0,-2.96802c-1.32173,0 -4.80333,-0.52602 -7.84427,-1.51542c-4.36747,-1.97863 -4.36747,-1.97863 -1.32653,2.5045zm-0.44053,-54.43904c2.2076,0 4.808,-7.97701 3.4816,-10.47883c-1.71453,-2.5045 -5.244,1.51226 -5.244,5.9957c0,2.50465 0.8812,4.48312 1.7624,4.48312zm-21.37787,33.94429c-2.64827,2.03829 -2.2076,2.50497 1.274,2.50497c2.2076,0 4.8032,-0.99255 5.6892,-2.50497c1.3216,-3.95978 -3.04107,-3.95978 -6.9632,0zm0.44067,43.95738c0.39267,0.52602 1.7144,-0.52318 3.04093,-2.96802c1.3216,-2.03829 5.244,-4.54278 8.2848,-5.53233c3.92213,-1.51273 5.68933,-3.95742 5.68933,-7.51112c0,-8.44022 -6.12987,-5.93889 -12.65253,5.00931c-2.64813,5.52965 -4.8032,10.01309 -4.36253,11.00217zm-4.808,-22.99641c3.922,-5.4722 3.922,-6.46475 0.83307,-7.97717c-3.48147,-1.97894 -6.07707,2.50497 -6.07707,10.47898c-0.44533,5.99854 -0.44533,5.99854 5.244,-2.50181zm-7.01107,-58.92201c0.44053,4.01676 1.32173,3.49389 3.922,-3.96026c3.08907,-7.97449 3.08907,-9.0237 0.44067,-9.0237c-1.7144,0 -3.4816,1.51273 -3.92213,4.01739c-0.8812,1.97847 -0.8812,6.52173 -0.44053,8.96656zm-2.15987,-40.9297c0,2.0356 0.8332,6.98525 1.7192,10.47898c1.32173,6.98794 1.32173,6.98794 2.64827,0.98939c1.7144,-5.99539 0,-14.96195 -2.64827,-14.96195c-1.27867,0 -1.7192,1.51195 -1.7192,3.49357zm-30.59653,16.47469c-2.15973,3.49405 -2.15973,6.98809 -0.44533,17.46692c0.886,7.51096 3.09373,15.02208 4.36747,16.47784c2.20773,2.5045 2.64827,0 3.0888,-15.48561c0,-18.92268 -2.2076,-24.92075 -7.01093,-18.45915zm3.92213,52.92662c0.44067,0.98955 1.32173,-0.98939 0.8812,-3.9601c0,-3.02784 -0.44053,-3.49405 -1.32173,-1.51242c-0.3928,1.97863 -0.3928,4.48312 0.44053,5.47252zm15.7412,-46.92808c-0.44053,0.98955 -0.44053,7.97749 0.8812,15.48561c1.32653,12.98648 1.7192,13.50935 2.15987,4.0196c0.44053,-15.48829 -0.44067,-22.99909 -3.04107,-19.50521zm-14.86,140.84106c2.64827,-5.99854 7.01107,-16.01163 10.052,-22.0097c3.48147,-6.46254 5.6892,-14.96242 6.5704,-23.46278c1.27867,-13.45 1.27867,-13.45 1.27867,-13.45c-5.24867,7.45415 -5.24867,7.45415 -5.24867,7.45415c-2.6004,4.01723 -4.3628,8.50035 -4.3628,10.01309c0,3.95994 -8.2896,28.93766 -10.89,33.4211c-1.32173,2.50134 -3.52947,8.03415 -3.92213,11.99393c-2.20773,11.46869 1.7192,9.48975 6.52253,-3.95978zm-30.994,51.41121c1.32653,9.95564 1.32653,9.95564 5.68933,-11.47122c2.6004,-11.52835 6.52253,-29.98403 9.1708,-41.45541c3.48147,-14.49621 4.808,-26.49014 4.808,-43.43372c0,-22.00749 -0.44533,-22.4737 -3.9268,-19.96873c-7.89227,6.46191 -12.25973,24.4517 -14.02213,59.38506c-0.8332,17.99326 -1.7192,35.98305 -2.60027,39.9433c-0.44067,4.01691 0,11.52803 0.88107,17.00071zm0.886,-127.80061c1.7144,4.94965 3.4816,8.96656 3.4816,8.96656c0.44053,0 2.59547,-3.02784 4.36267,-6.98762c2.2076,-3.49121 5.6892,-7.50812 7.01107,-8.96388c5.20067,-4.54278 6.5224,-18.51565 2.15973,-28.0054c-3.4816,-8.50035 -13.09293,-17.99294 -14.86013,-14.96511c-0.88107,0.98939 -2.15493,10.48198 -3.04093,21.48415c-1.76227,16.47737 -1.76227,21.48636 0.886,28.4713zm-2.64827,-114.35013c0.8812,0.99223 1.76227,0.46621 1.76227,-1.04605c0,-1.98163 -0.88107,-3.96057 -1.76227,-4.94981c-1.32653,-1.04905 -2.15987,-0.52318 -2.15987,1.45576c0,1.51242 0.83333,3.49405 2.15987,4.5401zm-141.47946,134.26189c6.08187,0.52587 6.08187,0.52587 6.08187,0.52587c6.12987,0 12.25973,-6.46475 12.25973,-11.99393c0,-3.49405 -0.44053,-3.49405 -18.3416,11.46806zm2.6004,-13.97303c0,1.51589 0.8812,3.02784 2.20773,3.02784c2.15507,0 8.2848,-8.96656 6.96307,-10.47883c-1.32653,-2.03829 -9.1708,4.48297 -9.1708,7.45099zm4.808,-34.41002c6.57053,9.95833 9.61147,10.94772 13.09293,4.48297c3.52947,-5.99539 0.44067,-10.01262 -10.05667,-11.46838c-8.72547,-1.51542 -8.72547,-1.51542 -3.03627,6.98541zm-4.808,-28.00288c0,1.04605 3.0888,3.49089 6.5704,5.52918c16.134,9.48991 19.2228,9.48991 18.78213,0.46668c0,-5.47299 -6.5704,-17.46723 -9.1708,-17.46723c-3.0888,0 -16.18173,9.48975 -16.18173,11.47138zm23.59027,70.91373c4.80333,0 5.24387,-1.51273 1.32173,-3.95757c-1.76707,-0.52587 -3.4816,0 -3.92213,1.45576c-0.886,1.51195 0.44053,2.50181 2.6004,2.50181zm3.4816,-117.31863c-3.04107,-2.50481 -6.968,-3.49389 -8.73027,-2.50481c-3.04093,1.98163 -2.6004,2.50481 1.76227,4.01676c2.15987,0.99255 6.57533,1.98179 8.73027,2.44799c2.6004,0 2.6004,-0.99223 -1.76227,-3.95994zm-0.39267,17.98979c2.59547,0 3.04093,-0.52318 1.27387,-2.0356c-1.27387,-0.46589 -3.04107,-0.46589 -3.92227,0.52334c-0.44053,0.98908 0.8812,1.97894 2.6484,1.51226zm2.59547,11.47153c-6.12973,0 -6.12973,0.46574 -2.59547,4.48297c4.36267,4.48312 5.63653,5.00599 7.40373,1.97863c3.0408,-3.95757 0.88107,-6.4616 -4.80827,-6.4616zm8.7304,-56.41799c-1.7672,-2.5045 -2.20773,1.97894 -1.32187,7.45146c0.44053,3.49405 2.20293,6.52141 3.08893,6.52141c1.7144,0 0.44053,-11.00485 -1.76707,-13.97287zm13.974,65.90695c-0.88107,0.46668 1.32653,3.49405 3.92693,5.99886c2.64827,2.50181 4.8032,3.49105 4.8032,1.97863c0,-3.49357 -7.4036,-10.0153 -8.73013,-7.97749zm-10.9332,3.49405c-3.92213,3.49436 -1.7144,12.46045 3.97013,13.97319c3.04093,0.98924 7.84907,5.00647 10.89,8.96625c2.64827,4.01723 4.8032,5.53265 4.8032,4.01723c0,-5.00631 -17.4556,-28.99495 -19.66333,-26.95667zm17.90107,41.45588c-2.60027,-8.03714 -5.64133,-11.99472 -11.33067,-14.49921c-4.36267,-1.97863 -8.73013,-3.02736 -10.05187,-2.5015c-1.32653,0.52287 3.92213,6.98494 11.37853,14.4959c13.974,12.98379 13.974,12.98379 10.004,2.50481zm23.1928,-76.91259c-0.8812,0 -1.7672,1.97894 -1.7672,3.95757c0,2.5045 0.886,4.01723 1.7672,4.01723c1.27387,0 2.15987,-1.51273 2.15987,-4.01723c0,-1.97863 -0.886,-3.95757 -2.15987,-3.95757zm-3.97,40.9297c0,3.49357 7.4516,0.98939 10.49253,-3.49405c4.3628,-7.5108 3.92213,-9.48975 -1.76707,-9.48975c-3.92213,0 -8.72547,6.98825 -8.72547,12.98379zm12.70027,-107.82919c-1.32653,6.46207 -2.20773,11.93459 -1.76707,12.46061c1.3264,1.97894 4.80813,-12.98348 4.80813,-18.98202c0,-2.50181 -1.32667,0.52602 -3.04107,6.52141zm22.7044,100.8411c-2.20773,0 -3.92227,0.99255 -3.92227,2.97071c0,1.51273 1.27387,2.50497 2.5956,2.50497c1.76707,0 3.4816,-0.99223 3.92693,-2.50497c0.8812,-1.97816 -0.44533,-2.97071 -2.60027,-2.97071zm-5.2488,93.85585c2.6004,9.02638 6.52253,17.46692 8.73027,19.50521c2.20773,1.51273 6.5704,8.50067 9.1708,15.48829c2.6004,6.98525 5.24867,12.45793 5.68933,12.45793c2.15493,0 -2.20773,-45.93601 -5.24867,-59.91156c-2.6484,-11.99125 -3.48173,-22.99641 -3.04107,-40.46333c0.39267,-12.98348 0,-24.45485 -0.88107,-25.44409c-0.44067,-0.98939 -3.4816,-0.98939 -6.12987,0c-4.80813,1.97863 -5.24867,3.49405 -5.24867,14.4989c0,8.4407 -0.88133,12.98379 -3.04107,14.96195c-6.12973,4.4836 -5.6892,29.92753 0,48.90671zm-12.65227,-66.89634c-0.8812,-7.51096 -1.76227,-8.50035 -6.5704,-8.50035c-5.68933,0 -5.68933,0.52318 -5.24867,11.00217c0,6.46475 0.88587,13.97556 1.3264,17.46676c0.44067,3.49405 2.15987,6.98762 3.92227,7.51096c3.48147,2.50481 7.4036,-14.96195 6.5704,-27.47954zm-6.5704,50.41897c-3.92227,-5.99586 -6.5704,-12.45793 -6.9632,-13.97287c0,-1.97863 -2.2076,-6.98494 -4.80333,-11.46838c-2.64827,-4.48312 -5.6892,-10.01546 -7.01573,-11.9944c-4.36267,-6.98762 -3.4816,-0.98908 1.32653,14.49621c3.04093,10.48151 8.28493,19.97141 14.41467,27.94843c11.33053,13.50666 12.6524,11.00264 3.04107,-5.00899zm-6.9632,24.51151c4.75547,0 4.3628,-0.52287 -2.2076,-8.49988c-4.3628,-5.00678 -7.40373,-10.4793 -7.40373,-12.98395c0,-1.97847 -5.68933,-9.02354 -12.2596,-15.48561c-6.52267,-6.52125 -12.65253,-12.98332 -13.5336,-14.96463c-0.886,-2.50181 -1.32653,-2.50181 -1.32653,0.46621c0,3.02784 -2.15507,3.49357 -9.1708,1.97863c-4.80333,-0.98955 -8.72547,-0.98955 -8.72547,-0.46353c0,0.98939 1.76227,6.98525 3.52947,12.98332c3.04107,9.95612 4.36267,11.99472 13.97413,15.95197c6.082,2.5045 15.6932,8.5002 21.82307,12.98332c5.68933,4.54325 12.6524,8.03415 15.30067,8.03415zm-68.1656,16.94358c1.76707,0 4.36747,-0.98908 6.12973,-2.50402c3.04107,-3.49136 0.44547,-3.49136 -5.24387,0c-2.6004,1.51494 -3.04093,1.98115 -0.88587,2.50402zm-4.80333,-12.46045c4.3628,-2.03529 18.3416,-4.01691 31.04187,-4.01691c23.97827,-0.46621 28.78627,-1.97816 19.1748,-5.00631c-3.0408,-0.98908 -10.004,-3.49405 -15.6932,-5.99586c-10.052,-4.48312 -30.60133,-2.97071 -32.7564,2.03608c-0.44533,0.99176 -2.64827,1.51494 -4.808,0.99176c-4.3628,-1.5151 -8.73027,2.50213 -10.052,10.4793c-1.76707,6.4616 1.32173,6.98762 13.09293,1.51195zm-34.91613,11.47138c0.8812,4.01723 5.24867,4.48312 8.73027,0.98908c2.15493,-1.97847 2.15493,-2.96755 0,-5.99539c-1.76707,-2.97118 -3.04093,-2.97118 -5.6892,-0.46621c-1.76707,1.45576 -3.04107,3.95757 -3.04107,5.47252zm-13.97413,34.93384c1.71453,0 2.59573,1.51273 1.71453,4.48344c-0.3928,2.03829 -1.71453,4.01691 -2.6004,4.01691c-1.32173,0 -2.15507,-1.97863 -2.15507,-4.01691c0,-2.44484 1.27387,-4.48344 3.04093,-4.48344z" stroke-width="0" fill="#007f00"/>
  <path id="svg_9" d="m436.72749,502.26673c-9.05509,-4.04216 -12.67073,-15.15141 -12.67073,-15.15141s-4.07959,2.51631 -4.07959,-4.55078s4.07959,4.55078 8.15918,-22.73604c0,0 11.31087,-3.54247 9.05509,-32.83699l-2.71973,0c0,0 6.79132,-31.32006 0,-41.92962c-6.79932,-10.60956 -9.51105,-17.67665 -24.46155,-22.73604s-9.50305,-4.05108 -20.37396,-3.53355c-10.87091,0.50862 -19.93401,7.06709 -19.93401,10.60064c0,0 -6.79132,0.50862 -9.50305,3.54247c-2.71973,3.03385 -7.24728,17.16803 -7.24728,20.7105s2.26377,27.28682 4.52755,32.33729l-2.69573,1.00831c-2.26377,29.29452 9.05509,32.83699 9.05509,32.83699c4.07159,27.28682 8.15119,15.66895 8.15119,22.73604s-4.07959,4.55078 -4.07959,4.55078s-3.61564,11.10925 -12.67073,15.15141c-9.05509,4.03324 -59.32207,25.75205 -63.40966,30.30283c-4.08759,4.5597 -3.62364,25.7699 -3.62364,25.7699l215.55445,0c0,0 0.47195,-21.21019 -3.61564,-25.7699c-4.09559,-4.55078 -54.36257,-26.26959 -63.41766,-30.30283zm-99.75003,-1.53477c-0.79192,-1.60616 -1.18388,-2.76616 -1.18388,-2.76616s-3.45565,2.13262 -3.45565,-3.85478s3.45565,3.85478 6.91131,-19.26496c0,0 9.59104,-2.99816 7.67123,-27.83113l-2.30377,0c0,0 1.14389,-5.27355 1.89581,-11.90341c-0.032,-2.74831 0.048,-5.67509 0.29597,-8.8874l0.30397,-3.80124c-0.16798,-4.39016 -0.85591,-8.37879 -2.49575,-10.93971c-5.75942,-8.98556 -8.06319,-14.98187 -20.72593,-19.26496c-12.66273,-4.28309 -8.06319,-3.43539 -17.27027,-2.99816c-9.21508,0.42831 -16.89431,5.9874 -16.89431,8.99448c0,0 -5.75942,0.42831 -8.06319,2.99816c-2.16778,2.41816 -5.63944,13.04556 -6.05539,16.82003l0,2.50739c0.37596,5.82678 2.06379,21.85266 3.75162,25.62713l-2.28777,0.85662c-1.91181,24.83297 7.67123,27.83113 7.67123,27.83113c3.45565,23.11974 6.91131,13.27756 6.91131,19.26496s-3.45565,3.85478 -3.45565,3.85478s-3.06369,9.43171 -10.74293,12.84033c-0.48795,0.21415 -1.11189,0.49969 -1.85581,0.82092l0,46.70347l4.59954,0c-0.23198,-11.40371 0.61594,-26.1179 5.9674,-32.0696c2.84772,-3.1677 12.18278,-8.37879 50.81092,-25.53789zm178.62214,-80.80754c-0.31997,-3.37293 -1.0159,-6.38001 -2.33577,-8.44125c-5.75143,-8.99448 -8.06319,-14.98187 -20.71793,-19.26496c-12.67073,-4.28309 -8.06319,-3.43539 -17.27827,-2.99816c-9.20708,0.42831 -16.88631,5.9874 -16.88631,8.99448c0,0 -5.75143,0.42831 -8.06319,2.99816c-2.16778,2.42708 -5.67143,13.13479 -6.06339,16.87357l0.26397,0l0.63994,8.14678c0.15998,2.06123 0.17598,3.89047 0.21598,5.7554c0.71993,5.94278 1.67983,12.04618 2.63974,14.1788l-2.28777,0.85662c-1.91181,24.83297 7.67923,27.83113 7.67923,27.83113c3.45565,23.11974 6.90331,13.27756 6.90331,19.26496s-3.45565,3.85478 -3.45565,3.85478s-0.42396,1.26708 -1.30387,3.01601c38.15619,16.95388 47.41126,22.12927 50.22698,25.28805c5.35946,5.9517 6.19938,20.65696 5.9674,32.0696l3.83962,0l0,-47.34594c-0.12799,-0.05354 -0.30397,-0.13385 -0.41596,-0.18738c-7.67123,-3.41754 -10.74293,-12.84033 -10.74293,-12.84033s-3.46365,2.13262 -3.46365,-3.85478s3.46365,3.85478 6.91131,-19.26496c0,0 6.43136,-2.04339 7.70323,-16.42742l0,-10.94864c-0.008,-0.16062 -0.008,-0.29446 -0.024,-0.45508l-2.31177,0c0,0 1.71983,-7.94155 2.33577,-16.60588l0,-10.49356l0.024,0z" stroke-width="0" stroke="#000" fill="#000000"/>
  <path stroke="#000" id="svg_11" d="m765.04519,103.26754l-26.22754,8.89945l0,-17.78943l26.22754,8.88998zm-19.04341,-43.83859l-11.94871,23.98778l-13.18582,-12.58624l25.13453,-11.40154zm-45.95658,-18.15432l9.32546,25.02084l-18.65589,0l9.33043,-25.02084zm-45.96156,18.15432l25.14446,11.40154l-13.19078,12.58624l-11.95368,-23.98778zm-19.03844,43.83859l26.23251,-8.88998l0,17.78943l-26.23251,-8.89945zm19.03844,43.83858l11.95368,-23.9783l13.19078,12.5815l-25.14446,11.3968l0,0zm45.96156,18.16853l-9.33043,-25.02557l18.65589,0l-9.32546,25.02557zm45.95658,-18.16853l-25.13949,-11.39206l13.18581,-12.5815l11.95368,23.97356zm-78.4541,-43.83858l0,0c0,-17.11653 14.55209,-30.99645 32.50248,-30.99645c17.94543,0 32.50249,13.87992 32.50249,30.99645c0,17.12126 -14.55706,31.00118 -32.50249,31.00118c-17.95536,0 -32.50248,-13.87992 -32.50248,-31.00118l0,0z" stroke-width="0" fill="#bfbf00"/>
  <path id="svg_12" d="m394.34969,422.81648c-3.41458,-0.81865 -5.39275,-4.18432 -5.15941,-7.23754c-0.08741,-3.98808 0.31971,-8.18455 -1.7904,-11.85154c-1.20274,-2.73792 -3.25161,-5.15527 -4.10664,-8.00848c-1.06399,-4.42657 0.25026,-9.44363 4.21019,-12.41536c4.46586,-3.45844 11.5975,-3.90921 16.51352,-0.96975c3.46731,2.15851 5.96905,5.71864 5.87611,9.60358c0.40685,2.90291 -0.86083,5.63335 -2.35211,8.12887c-1.06844,2.00932 -2.31622,3.97554 -3.286,6.00727c-0.25566,4.16579 -0.10903,8.3698 -0.80247,12.49976c-1.15515,3.20025 -5.50845,5.3761 -9.10279,4.24318l0,0zm9.01843,-7.44851c-2.02646,-0.98721 -4.93847,-0.34537 -7.29393,-0.55791c-1.9241,0.34782 -5.34303,-0.7134 -6.36592,0.87847c2.33929,0.82704 5.08844,0.20708 7.57884,0.34391c1.99269,-0.17297 4.28532,0.16403 6.08101,-0.66447l0,0zm-0.15177,-1.85765c0.29823,-2.5081 -4.09023,-1.22826 -5.87299,-1.60163c-2.3596,0.43164 -6.11468,-0.92395 -7.59868,1.00311c0.87937,1.93655 4.80114,0.5746 6.86053,1.00426c2.19613,-0.07033 4.47451,0.07114 6.61114,-0.40575l0,0zm0.02732,-4.39441c0.57933,-4.88585 3.88474,-8.95393 5.79871,-13.42324c1.57365,-5.35105 -1.54292,-11.46437 -7.18544,-13.71051c-5.61627,-2.51564 -13.09895,-0.61523 -16.27289,4.31411c-3.05811,4.07176 -2.47449,9.60414 0.51443,13.56389c2.13267,3.46062 3.83421,7.34962 3.55704,11.37698c4.42692,0 8.85385,0 13.28078,0c0.10246,-0.70707 0.20489,-1.41418 0.30738,-2.12124zm-9.80047,-6.92192c-1.75397,-2.75626 -3.55454,-5.53376 -4.77592,-8.52087c1.09809,-1.28465 1.41754,-2.71562 1.75865,-4.22502c3.08202,-0.54713 -0.39231,3.17426 2.51756,3.25812c2.58295,1.01568 1.44985,-4.9284 3.59581,-2.78584c-1.54045,2.35144 3.02585,4.69068 3.19344,1.32684c-0.22137,-2.53986 2.75999,-2.064 1.59762,0.24018c0.09594,1.18531 2.23126,1.52512 2.26782,2.47845c-1.53722,3.01351 -2.8734,6.12472 -4.69364,9.00965c-0.40972,-1.11696 1.61145,-3.91644 2.25729,-5.56017c1.24624,-1.42086 2.31715,-5.24997 -0.93172,-4.72802c-1.88463,2.65668 -4.41986,-1.67463 -6.26518,0.8714c-1.56648,0.4223 -4.03021,-2.45186 -4.48463,0.3117c1.17981,3.28241 3.63472,6.07985 4.91918,9.32838c-0.43585,-0.23224 -0.68403,-0.6397 -0.95629,-1.0048l0,0zm-2.46188,-12.02963c-0.85291,-0.37621 0.35949,2 -0.00002,0l0.00002,0zm5.09782,0.28066c-1.10716,-1.69345 -0.51337,2.05468 0,0zm4.94123,0c-1.10716,-1.69345 -0.51338,2.05468 0,0zm-23.00375,-12.51311c-1.95689,-1.79495 -4.11999,-3.47921 -5.82184,-5.45774c4.2516,3.18072 8.14301,6.76288 11.97452,10.35402c1.01743,1.26356 -1.77498,-1.17996 -2.29469,-1.58955c-1.30038,-1.08843 -2.58372,-2.1934 -3.85799,-3.30673l0,0zm30.21832,5.13194c3.30762,-3.72471 6.39371,-7.62955 9.95981,-11.15585c-0.59714,1.51825 -2.51937,3.33495 -3.728,4.8986c-2.0184,2.26947 -3.90507,4.66902 -6.21316,6.70382c-0.28807,0.27519 -0.71824,-0.37662 -0.01862,-0.44657l-0.00003,0l0,0zm-7.16439,-3.53358c1.14281,-2.95423 2.80048,-5.76631 4.64984,-8.41028c-0.04298,1.46674 -2.00437,4.2467 -2.94713,6.06541c-0.53332,0.73186 -0.98315,1.89903 -1.70271,2.34487zm-14.6348,-3.78869c-0.79607,-1.04945 -3.19247,-3.49306 -2.74503,-3.8263c2.31043,2.31521 4.66033,4.70486 6.32003,7.4428c-1.4134,-0.97971 -2.43041,-2.39473 -3.575,-3.6165l0,0zm9.14925,-0.82593c-0.16111,-0.98557 0.33903,-5.69049 0.61689,-2.49575c0.00099,2.00165 0.23217,4.25502 -0.38431,6.07689c-0.26399,-1.17132 -0.19994,-2.39074 -0.23258,-3.58114z" stroke-width="0" stroke="#000" fill="#ffff00"/>
  <path id="svg_15" d="m602.31492,377.1824l-8.01415,0.46199l-2.14413,11.25629l-7.0899,-2.72135l-10.28205,8.63734l-3.91467,-5.04069l-32.97209,21.55622l18.32004,-24.03977l-15.21719,-3.12529l4.76172,-4.64995l-10.44753,-8.53442l7.50819,-2.06393l-2.36085,-11.23392l7.87085,1.17737l6.47538,-10.36674l5.73458,4.04487l13.25572,-6.20819l1.77762,5.62815l15.82747,-0.07858l-2.74373,5.42453l13.3741,6.07597l-6.39395,3.49866l6.67456,10.30145z" stroke-width="0" stroke="#000" fill="#007f7f"/>
 </g>
</svg>